<svg width="12" height="12" viewBox="0 0 12 12" fill="none" xmlns="http://www.w3.org/2000/svg">
<g clip-path="url(#clip0)">
<path d="M6.00016 5.99992C7.28683 5.99992 8.3335 4.95325 8.3335 3.66659C8.3335 2.37992 7.28683 1.33325 6.00016 1.33325C4.7135 1.33325 3.66683 2.37992 3.66683 3.66659C3.66683 4.95325 4.7135 5.99992 6.00016 5.99992ZM6.00016 2.66659C6.5535 2.66659 7.00016 3.11325 7.00016 3.66659C7.00016 4.21992 6.5535 4.66658 6.00016 4.66658C5.44683 4.66658 5.00016 4.21992 5.00016 3.66659C5.00016 3.11325 5.44683 2.66659 6.00016 2.66659ZM6.0335 9.33325H3.18016C3.84016 8.99992 4.98016 8.66658 6.00016 8.66658C6.0735 8.66658 6.1535 8.67325 6.22683 8.67325C6.4535 8.18658 6.84683 7.78658 7.32016 7.46658C6.8335 7.37992 6.3735 7.33325 6.00016 7.33325C4.44016 7.33325 1.3335 8.11325 1.3335 9.66658V10.6666H6.00016V9.66658C6.00016 9.55325 6.0135 9.43992 6.0335 9.33325Z" fill="#4F4F4F"/>
<path d="M8.81572 9.33325H5.95604C5.97608 9.43992 5.98944 9.55325 5.98944 9.66659V10.6666H10.6665V9.66659C10.6665 8.11325 7.55292 7.33325 5.98944 7.33325C5.61528 7.33325 5.15425 7.37992 4.6665 7.46659C5.14089 7.78659 5.5351 8.18659 5.76227 8.67325C5.83577 8.67325 5.91595 8.66659 5.98944 8.66659C7.01172 8.66659 8.15425 8.99992 8.81572 9.33325Z" fill="#4F4F4F"/>
</g>
<defs>
<clipPath id="clip0">
<rect width="12" height="12" fill="white"/>
</clipPath>
</defs>
</svg>
