<svg width="27" height="22" viewBox="0 0 27 22" fill="none" xmlns="http://www.w3.org/2000/svg">
<path d="M15.2391 6.86563C15.2391 6.09688 14.5781 6.00312 13.9547 6.00312L12.1219 5.98906V9.2375H12.8906V8.06094H13.7344C14.5969 8.06094 14.4141 8.54375 14.4281 9.2375H15.2063V8.60469C15.2063 8.17344 15.1359 7.89687 14.6906 7.74219C15.0375 7.60156 15.2438 7.24063 15.2391 6.86563V6.86563ZM13.8609 7.39531H12.8906V6.67813H13.875C14.1141 6.67813 14.3766 6.725 14.3766 7.025C14.3766 7.33437 14.1281 7.39531 13.8609 7.39531V7.39531ZM13.0781 11.5906H10.6078L9.62344 12.6594L8.66251 11.5906H5.54532L5.54063 14.8391H8.60626L9.60469 13.7609L10.5609 14.8391H12.0703L12.075 13.7469C12.9609 13.7469 14.3859 13.9625 14.3859 12.6547C14.3859 11.8437 13.8094 11.5906 13.0781 11.5906V11.5906ZM8.21251 14.1547H6.30938V13.5078H8.01094V12.8469H6.30938V12.2609H8.26407L9.10313 13.2078L8.21251 14.1547ZM11.2969 14.5391L10.1109 13.2219L11.2969 11.9375V14.5391ZM13.0688 13.0859H12.075V12.2609H13.0828C13.3453 12.2609 13.5609 12.3687 13.5609 12.6547C13.5609 12.9547 13.3453 13.0859 13.0688 13.0859V13.0859ZM11.5875 6.67813V5.99375H8.98594V9.24219H11.5875V8.57187H9.76407V7.925H11.5359V7.26406H9.76407V6.67813H11.5875ZM27 10.9719H26.9906H27ZM17.8781 12.4672C17.8781 11.6984 17.2172 11.5906 16.6078 11.5906H14.7609L14.7563 14.8391H15.5344L15.5391 13.6531H16.3641C16.8797 13.6531 17.0578 13.7469 17.0578 14.3L17.0531 14.8391H17.8313L17.8359 14.1922C17.8359 13.775 17.7516 13.4844 17.3203 13.3297C17.6813 13.1844 17.8734 12.8234 17.8781 12.4672V12.4672ZM16.5094 12.9922H15.5391V12.2609H16.5234C16.7625 12.2609 17.025 12.3078 17.025 12.6078C17.025 12.9312 16.7719 12.9922 16.5094 12.9922V12.9922ZM8.40938 9.24219V5.99375H7.11563L6.19219 8.19687L5.17501 5.99375H3.90469V9.07344L2.58751 5.99375H1.43907L0.0468811 9.24219H0.885944L1.18594 8.525H2.80313L3.10313 9.24219H4.68751V6.70156L5.81251 9.24219H6.49688L7.62188 6.70156V9.24219H8.40938ZM1.46251 7.85L1.98751 6.55625L2.52657 7.85H1.46251ZM23.8406 15.2984V15.0875C23.3344 15.35 23.6578 15.2984 16.4953 15.2984C16.4953 14.1172 16.5 14.1781 16.4953 14.1172C16.4156 14.1125 16.3453 14.1125 16.0547 14.1125C16.0547 14.9516 16.05 14.4313 16.05 15.2984H14.1938C14.1938 14.7313 14.1984 14.5812 14.1984 13.9297C13.7297 14.2109 13.1297 14.2297 12.5906 14.2203C12.5906 14.9094 12.5859 14.6094 12.5859 15.2984H10.2938C10.0547 15.0313 10.1672 15.1531 9.57188 14.4828C9.42188 14.6469 8.97188 15.1344 8.81719 15.2984H4.97344V10.9719H8.86876C9.10313 11.2344 9.00001 11.1172 9.59532 11.7781C9.74532 11.6141 10.1672 11.15 10.3313 10.9719H13.05C13.5094 10.9719 13.8938 11.0609 14.1891 11.2344V10.9719C16.7344 10.9719 17.2031 10.9062 17.7375 11.2109V10.9719H21.4031V11.2156C21.9375 10.8922 22.3219 10.9719 24.4453 10.9719V11.2062C24.9281 10.9297 25.2234 10.9625 26.9906 10.9719V2.75C26.9906 1.50781 25.9828 0.5 24.7406 0.5H2.24063C0.998444 0.5 -0.0093689 1.50781 -0.0093689 2.75V7.89688C0.431256 6.87031 0.914069 5.74062 1.07344 5.37031H2.93438C3.13594 5.84375 3.00938 5.54375 3.35626 6.35938V5.37031H5.51251C5.64844 5.66094 6.03282 6.49531 6.16407 6.77656C6.43594 6.13906 6.63751 5.65625 6.75469 5.37031H11.5828C11.5828 5.36562 12.1219 5.37031 12.1266 5.37031C14.175 5.37969 14.6391 5.33281 15.1453 5.61875V5.37031H17.0156V5.80625C17.3719 5.52031 17.8547 5.37031 18.4547 5.37031H19.7484C19.7484 5.39375 19.8375 5.38437 19.8563 5.38437H21.375C21.5719 5.84375 21.4969 5.66563 21.7875 6.35V5.38437H23.8172C24.0469 5.75937 23.7703 5.3 24.3422 6.24688V5.38437H26.2125V9.69687H24.2625C24.0094 9.275 24.1969 9.59375 23.6438 8.67031V9.69687H21.1688C20.8688 9.00312 21.1641 9.68281 20.8594 8.97969H19.9688C19.7719 9.44844 19.8656 9.22344 19.6688 9.69687H18.4125C17.8359 9.69687 17.3672 9.55625 17.0203 9.27969V9.69687H13.9031C13.8891 9.04531 13.8984 8.53437 13.8984 8.53437C13.8141 8.52031 13.7391 8.525 13.4391 8.525V9.70156H7.08751V9.16719C6.97032 9.42969 6.96094 9.44375 6.84844 9.70156H5.46563C5.27813 9.28438 5.32969 9.40156 5.22657 9.16719V9.70156H2.74688C2.55001 9.22813 2.64376 9.45312 2.44688 8.98438H1.54688C1.35001 9.45312 1.44376 9.22813 1.24688 9.70156H6.10366e-06V19.25C6.10366e-06 20.4922 1.00782 21.5 2.25001 21.5H24.7547C25.9969 21.5 27.0047 20.4922 27.0047 19.25V15.0125C26.4094 15.4016 25.4719 15.2984 23.8406 15.2984V15.2984ZM25.5422 12.275H26.9531V11.5906H25.4109C24.8109 11.5906 24.2953 11.9 24.2953 12.5609C24.2953 14.1078 26.2969 13.1609 26.2969 13.8453C26.2969 14.0844 26.0953 14.1453 25.9031 14.1453H24.4031L24.3984 14.8391H25.8984C26.2922 14.8391 26.7234 14.7547 26.9531 14.4219V13.2125C26.4609 12.5656 25.1109 13.1516 25.1109 12.5797C25.1109 12.3078 25.3266 12.275 25.5422 12.275V12.275ZM22.8703 14.1406H21.3609L21.3563 14.8344H22.8656C23.5594 14.8344 24.0938 14.5719 24.0938 13.8031C24.0938 12.2469 22.0828 13.2781 22.0828 12.5703C22.0828 12.3078 22.3125 12.2703 22.5141 12.2703H23.9391V11.5859H22.3828C21.7828 11.5859 21.2813 11.8953 21.2813 12.5563C21.2813 14.1031 23.2828 13.1422 23.2828 13.8406C23.2781 14.0938 23.0625 14.1406 22.8703 14.1406V14.1406ZM20.8922 12.2609V11.5906H18.3047L18.3 14.8391H20.8875L20.8922 14.1688L19.0828 14.1547V13.5078H20.8594V12.8469H19.0875V12.2609H20.8922ZM18.2531 7.19375C18.2391 7.20313 18.1875 7.29687 18.1875 7.55C18.1875 7.83125 18.2297 7.91094 18.2391 7.92031C18.2484 7.925 18.2906 7.94375 18.3984 7.94375L18.7406 7.15156C18.6891 7.15156 18.6422 7.14688 18.5953 7.14688C18.3328 7.14688 18.2672 7.17969 18.2531 7.19375ZM19.2094 6.70156H19.2047H19.2094ZM18.45 5.98906C17.3484 5.98906 16.8563 6.55156 16.8563 7.64375C16.8563 8.68437 17.3344 9.2375 18.4031 9.2375H19.3031L19.6031 8.52031H21.2109L21.5203 9.2375H23.1V6.80469L24.5625 9.2375H25.6688V6.00312H24.8766V8.25781L23.5125 6.00312H22.3266V9.06875L21.0188 6.00312H19.8563L18.7547 8.55781H18.4078C17.7844 8.55781 17.6531 8.17813 17.6531 7.625C17.6531 6.50938 18.3891 6.6875 19.2047 6.70156V5.98906H18.45ZM20.4234 6.55625L20.9484 7.85H19.8797L20.4234 6.55625ZM15.6844 5.99375V9.24219H16.4766V5.99375H15.6844Z" fill="#2671B9"/>
</svg>
