<svg width="14" height="14" viewBox="0 0 14 14" fill="none" xmlns="http://www.w3.org/2000/svg">
<path d="M12.25 4.24667V2.91667C12.25 2.275 11.725 1.75 11.0833 1.75H2.91667C2.26917 1.75 1.75 2.275 1.75 2.91667V11.0833C1.75 11.725 2.26917 12.25 2.91667 12.25H11.0833C11.725 12.25 12.25 11.725 12.25 11.0833V9.75333C12.5942 9.54917 12.8333 9.18167 12.8333 8.75V5.25C12.8333 4.81833 12.5942 4.45083 12.25 4.24667ZM11.6667 5.25V8.75H7.58333V5.25H11.6667ZM2.91667 11.0833V2.91667H11.0833V4.08333H7.58333C6.94167 4.08333 6.41667 4.60833 6.41667 5.25V8.75C6.41667 9.39167 6.94167 9.91667 7.58333 9.91667H11.0833V11.0833H2.91667Z" fill="#4F4F4F"/>
<path d="M9.3335 7.875C9.81675 7.875 10.2085 7.48325 10.2085 7C10.2085 6.51675 9.81675 6.125 9.3335 6.125C8.85025 6.125 8.4585 6.51675 8.4585 7C8.4585 7.48325 8.85025 7.875 9.3335 7.875Z" fill="#4F4F4F"/>
</svg>
