<svg width="14" height="14" viewBox="0 0 14 14" fill="none" xmlns="http://www.w3.org/2000/svg">
<path d="M7.00033 1.16666C3.78033 1.16666 1.16699 3.77999 1.16699 6.99999C1.16699 10.22 3.78033 12.8333 7.00033 12.8333C10.2203 12.8333 12.8337 10.22 12.8337 6.99999C12.8337 3.77999 10.2203 1.16666 7.00033 1.16666ZM2.33366 6.99999C2.33366 4.42166 4.42199 2.33332 7.00033 2.33332C8.07949 2.33332 9.07116 2.70082 9.85866 3.31916L3.31949 9.85832C2.70116 9.07082 2.33366 8.07916 2.33366 6.99999ZM7.00033 11.6667C5.92116 11.6667 4.92949 11.2992 4.14199 10.6808L10.6812 4.14166C11.2995 4.92916 11.667 5.92082 11.667 6.99999C11.667 9.57832 9.57866 11.6667 7.00033 11.6667Z" fill="#EB5757"/>
</svg>
