<svg width="15" height="10" viewBox="0 0 15 10" fill="none" xmlns="http://www.w3.org/2000/svg">
<path d="M12.0938 3.775C11.6687 1.61875 9.775 0 7.5 0C5.69375 0 4.125 1.025 3.34375 2.525C1.4625 2.725 0 4.31875 0 6.25C0 8.31875 1.68125 10 3.75 10H11.875C13.6 10 15 8.6 15 6.875C15 5.225 13.7188 3.8875 12.0938 3.775ZM11.875 8.75H3.75C2.36875 8.75 1.25 7.63125 1.25 6.25C1.25 4.96875 2.20625 3.9 3.475 3.76875L4.14375 3.7L4.45625 3.10625C5.05 1.9625 6.2125 1.25 7.5 1.25C9.1375 1.25 10.55 2.4125 10.8687 4.01875L11.0563 4.95625L12.0125 5.025C12.9875 5.0875 13.75 5.90625 13.75 6.875C13.75 7.90625 12.9062 8.75 11.875 8.75ZM8.40625 3.75H6.59375V5.625H5L7.5 8.125L10 5.625H8.40625V3.75Z" fill="#333333"/>
</svg>
