<svg width="16" height="16" viewBox="0 0 16 16" fill="none" xmlns="http://www.w3.org/2000/svg">
<path d="M8.33333 6.66675C8.33333 5.56675 7.43333 4.66675 6.33333 4.66675C5.23333 4.66675 4.33333 5.56675 4.33333 6.66675C4.33333 7.76675 5.23333 8.66675 6.33333 8.66675C7.43333 8.66675 8.33333 7.76675 8.33333 6.66675ZM6.33333 7.33342C5.96666 7.33342 5.66666 7.03342 5.66666 6.66675C5.66666 6.30009 5.96666 6.00009 6.33333 6.00009C6.69999 6.00009 6.99999 6.30009 6.99999 6.66675C6.99999 7.03342 6.69999 7.33342 6.33333 7.33342ZM10.6667 8.66675C11.4067 8.66675 12 8.07342 12 7.33342C12 6.59342 11.4067 6.00009 10.6667 6.00009C9.92666 6.00009 9.32666 6.59342 9.33333 7.33342C9.33333 8.07342 9.92666 8.66675 10.6667 8.66675ZM7.99333 1.34009C4.31333 1.34009 1.32666 4.32675 1.32666 8.00675C1.32666 11.6868 4.31333 14.6734 7.99333 14.6734C11.6733 14.6734 14.66 11.6868 14.66 8.00675C14.66 4.32675 11.6733 1.34009 7.99333 1.34009ZM3.89333 11.4134C4.34666 11.0534 5.40666 10.6734 6.33333 10.6734C6.37999 10.6734 6.43333 10.6801 6.48666 10.6801C6.64666 10.2534 6.93333 9.82009 7.35333 9.44009C6.97999 9.37342 6.62666 9.33342 6.33333 9.33342C5.46666 9.33342 4.07333 9.63342 3.17999 10.2868C2.84666 9.59342 2.65999 8.82009 2.65999 8.00009C2.65999 5.06009 5.05333 2.66675 7.99333 2.66675C10.9333 2.66675 13.3267 5.06009 13.3267 8.00009C13.3267 8.80009 13.1467 9.56009 12.8267 10.2468C12.16 9.85342 11.2533 9.66675 10.6667 9.66675C9.65333 9.66675 7.66666 10.2068 7.66666 11.4668V13.3201C6.15333 13.2334 4.80666 12.5134 3.89333 11.4134Z" fill="#4F4F4F"/>
</svg>
