<svg width="26" height="18" viewBox="0 0 26 18" fill="none" xmlns="http://www.w3.org/2000/svg">
<path d="M20.9625 6.87671C20.2258 3.13921 16.9433 0.333374 13 0.333374C9.86917 0.333374 7.15 2.11004 5.79583 4.71004C2.535 5.05671 0 7.81921 0 11.1667C0 14.7525 2.91417 17.6667 6.5 17.6667H20.5833C23.5733 17.6667 26 15.24 26 12.25C26 9.39004 23.7792 7.07171 20.9625 6.87671ZM20.5833 15.5H6.5C4.10583 15.5 2.16667 13.5609 2.16667 11.1667C2.16667 8.94587 3.82417 7.09337 6.02333 6.86587L7.1825 6.74671L7.72417 5.71754C8.75333 3.73504 10.7683 2.50004 13 2.50004C15.8383 2.50004 18.2867 4.51504 18.8392 7.29921L19.1642 8.92421L20.8217 9.04337C22.5117 9.15171 23.8333 10.5709 23.8333 12.25C23.8333 14.0375 22.3708 15.5 20.5833 15.5ZM8.66667 10.0834H11.4292V13.3334H14.5708V10.0834H17.3333L13 5.75004L8.66667 10.0834Z" fill="#4F4F4F"/>
</svg>
