<svg width="13" height="13" viewBox="0 0 13 13" fill="none" xmlns="http://www.w3.org/2000/svg">
<path d="M5.95825 8.12492H7.04159V9.20825H5.95825V8.12492ZM5.95825 3.79159H7.04159V7.04159H5.95825V3.79159ZM6.4945 1.08325C3.5045 1.08325 1.08325 3.50992 1.08325 6.49992C1.08325 9.48992 3.5045 11.9166 6.4945 11.9166C9.48992 11.9166 11.9166 9.48992 11.9166 6.49992C11.9166 3.50992 9.48992 1.08325 6.4945 1.08325ZM6.49992 10.8333C4.10575 10.8333 2.16659 8.89409 2.16659 6.49992C2.16659 4.10575 4.10575 2.16659 6.49992 2.16659C8.89409 2.16659 10.8333 4.10575 10.8333 6.49992C10.8333 8.89409 8.89409 10.8333 6.49992 10.8333Z" fill="#4F4F4F"/>
</svg>
