<svg width="12" height="12" viewBox="0 0 12 12" fill="none" xmlns="http://www.w3.org/2000/svg">
<path d="M5.31978 3.91592C5.34172 3.9598 5.36366 4.00367 5.3856 4.03658C5.40753 4.06949 5.44044 4.10239 5.46238 4.1353C5.49529 4.16821 5.52819 4.20111 5.57207 4.23402C5.60497 4.25596 5.64885 4.28887 5.7037 4.29983C5.74757 4.32177 5.79145 4.33274 5.84629 4.34371C5.90114 4.35468 5.94501 4.35468 5.98889 4.35468C6.03276 4.35468 6.08761 4.35468 6.13148 4.34371C6.17536 4.33274 6.21923 4.32177 6.25214 4.29983H6.26311C6.30699 4.2779 6.35086 4.25596 6.39474 4.22305C6.42764 4.20111 6.46055 4.16821 6.49346 4.1353L6.50443 4.12433C6.53733 4.09143 6.55927 4.05852 6.58121 4.02561C6.60315 3.99271 6.62508 3.9598 6.63605 3.91592C6.63605 3.90495 6.63605 3.90495 6.64702 3.89398C6.66896 3.85011 6.67993 3.79526 6.6909 3.75139C6.70187 3.70751 6.70187 3.65267 6.70187 3.60879C6.70187 3.56492 6.70187 3.51007 6.6909 3.4662C6.67993 3.42232 6.66896 3.37845 6.64702 3.3236C6.61412 3.24682 6.57024 3.181 6.5154 3.12616C6.50443 3.11519 6.50443 3.11519 6.49346 3.10422C6.46055 3.07132 6.42764 3.04938 6.38377 3.01647C6.33989 2.99453 6.30699 2.9726 6.26311 2.95066C6.21923 2.92872 6.17536 2.91775 6.13148 2.90678C6.07664 2.89581 6.03276 2.89581 5.98889 2.89581C5.94501 2.89581 5.89017 2.89581 5.84629 2.90678C5.80242 2.91775 5.75854 2.92872 5.71466 2.95066H5.7037C5.65982 2.9726 5.61594 2.99453 5.58304 3.01647C5.53916 3.04938 5.50625 3.07132 5.47335 3.10422C5.44044 3.13713 5.40753 3.17004 5.3856 3.20294C5.36366 3.23585 5.34172 3.27973 5.31978 3.3236C5.29785 3.36748 5.28688 3.41135 5.27591 3.45523C5.26494 3.51007 5.26494 3.55395 5.26494 3.59782C5.26494 3.6417 5.26494 3.69654 5.27591 3.74042C5.28688 3.82817 5.30881 3.87205 5.31978 3.91592Z" fill="#828282"/>
<path d="M6.84472 7.93053H6.59244V5.24314C6.59244 5.08957 6.47178 4.95795 6.30724 4.95795H5.15551C5.00194 4.95795 4.87032 5.0786 4.87032 5.24314V5.83546C4.87032 5.98903 4.99097 6.12065 5.15551 6.12065H5.38585V7.94149H5.15551C5.00194 7.94149 4.87032 8.06215 4.87032 8.22669V8.81901C4.87032 8.97257 4.99097 9.1042 5.15551 9.1042H6.84472C6.99829 9.1042 7.12991 8.98354 7.12991 8.81901V8.22669C7.12991 8.06215 6.99829 7.93053 6.84472 7.93053Z" fill="#828282"/>
<path d="M6 0C2.68739 0 0 2.68739 0 6C0 9.31261 2.68739 12 6 12C9.31261 12 12 9.31261 12 6C12 2.68739 9.31261 0 6 0ZM6 11.2102C3.12614 11.2102 0.789762 8.87386 0.789762 6C0.789762 3.12614 3.12614 0.789762 6 0.789762C8.87386 0.789762 11.2102 3.12614 11.2102 6C11.2102 8.87386 8.87386 11.2102 6 11.2102Z" fill="#828282"/>
</svg>
