<svg width="44" height="44" viewBox="0 0 44 44" fill="none" xmlns="http://www.w3.org/2000/svg">
<path d="M31.1667 12.8333H23.8333V16.5H31.1667C34.1917 16.5 36.6667 18.975 36.6667 22C36.6667 25.025 34.1917 27.5 31.1667 27.5H23.8333V31.1667H31.1667C36.2267 31.1667 40.3333 27.06 40.3333 22C40.3333 16.94 36.2267 12.8333 31.1667 12.8333ZM20.1667 27.5H12.8333C9.80832 27.5 7.33332 25.025 7.33332 22C7.33332 18.975 9.80832 16.5 12.8333 16.5H20.1667V12.8333H12.8333C7.77332 12.8333 3.66666 16.94 3.66666 22C3.66666 27.06 7.77332 31.1667 12.8333 31.1667H20.1667V27.5ZM14.6667 20.1667H29.3333V23.8333H14.6667V20.1667Z" fill="black"/>
</svg>
