<svg width="13" height="13" viewBox="0 0 13 13" fill="none" xmlns="http://www.w3.org/2000/svg">
<path d="M10.2915 7.58341V3.25008C10.2915 2.65425 9.804 2.16675 9.20817 2.16675H1.62484C1.029 2.16675 0.541504 2.65425 0.541504 3.25008V7.58341C0.541504 8.17925 1.029 8.66675 1.62484 8.66675H9.20817C9.804 8.66675 10.2915 8.17925 10.2915 7.58341ZM9.20817 7.58341H1.62484V3.25008H9.20817V7.58341ZM5.4165 3.79175C4.51734 3.79175 3.7915 4.51758 3.7915 5.41675C3.7915 6.31591 4.51734 7.04175 5.4165 7.04175C6.31567 7.04175 7.0415 6.31591 7.0415 5.41675C7.0415 4.51758 6.31567 3.79175 5.4165 3.79175ZM12.4582 3.79175V9.75008C12.4582 10.3459 11.9707 10.8334 11.3748 10.8334H2.1665C2.1665 10.2917 2.1665 10.3459 2.1665 9.75008H11.3748V3.79175C11.9707 3.79175 11.9165 3.79175 12.4582 3.79175Z" fill="#4F4F4F"/>
</svg>
