<svg width="13" height="13" viewBox="0 0 13 13" fill="none" xmlns="http://www.w3.org/2000/svg">
<path d="M6.49992 1.08325C3.50992 1.08325 1.08325 3.50992 1.08325 6.49992C1.08325 9.48992 3.50992 11.9166 6.49992 11.9166C9.48992 11.9166 11.9166 9.48992 11.9166 6.49992C11.9166 3.50992 9.48992 1.08325 6.49992 1.08325ZM6.49992 10.8333C4.10575 10.8333 2.16659 8.89409 2.16659 6.49992C2.16659 4.10575 4.10575 2.16659 6.49992 2.16659C8.89409 2.16659 10.8333 4.10575 10.8333 6.49992C10.8333 8.89409 8.89409 10.8333 6.49992 10.8333Z" fill="#4F4F4F"/>
<path d="M3.7915 7.3125C4.24024 7.3125 4.604 6.94873 4.604 6.5C4.604 6.05127 4.24024 5.6875 3.7915 5.6875C3.34277 5.6875 2.979 6.05127 2.979 6.5C2.979 6.94873 3.34277 7.3125 3.7915 7.3125Z" fill="#4F4F4F"/>
<path d="M6.5 7.3125C6.94873 7.3125 7.3125 6.94873 7.3125 6.5C7.3125 6.05127 6.94873 5.6875 6.5 5.6875C6.05127 5.6875 5.6875 6.05127 5.6875 6.5C5.6875 6.94873 6.05127 7.3125 6.5 7.3125Z" fill="#4F4F4F"/>
<path d="M9.20825 7.3125C9.65698 7.3125 10.0208 6.94873 10.0208 6.5C10.0208 6.05127 9.65698 5.6875 9.20825 5.6875C8.75952 5.6875 8.39575 6.05127 8.39575 6.5C8.39575 6.94873 8.75952 7.3125 9.20825 7.3125Z" fill="#4F4F4F"/>
</svg>
