<svg width="32" height="32" viewBox="0 0 32 32" fill="none" xmlns="http://www.w3.org/2000/svg">
<path d="M26 4.66667L24 2.66667L22 4.66667L20 2.66667L18 4.66667L16 2.66667L14 4.66667L12 2.66667L10 4.66667L8 2.66667L6 4.66667L4 2.66667V29.3333L6 27.3333L8 29.3333L10 27.3333L12 29.3333L14 27.3333L16 29.3333L18 27.3333L20 29.3333L22 27.3333L24 29.3333L26 27.3333L28 29.3333V2.66667L26 4.66667ZM25.3333 25.4533H6.66667V6.54667H25.3333V25.4533ZM8 20H24V22.6667H8V20ZM8 14.6667H24V17.3333H8V14.6667ZM8 9.33334H24V12H8V9.33334Z" fill="black"/>
</svg>
