<svg width="15" height="15" viewBox="0 0 15 15" fill="none" xmlns="http://www.w3.org/2000/svg">
<path d="M7.66675 1C4.35342 1 1.66675 3.68667 1.66675 7H-0.333252L2.26008 9.59333L2.30675 9.68667L5.00008 7H3.00008C3.00008 4.42 5.08675 2.33333 7.66675 2.33333C10.2467 2.33333 12.3334 4.42 12.3334 7C12.3334 9.58 10.2467 11.6667 7.66675 11.6667C6.38008 11.6667 5.21342 11.14 4.37341 10.2933L3.42675 11.24C4.51341 12.3267 6.00675 13 7.66675 13C10.9801 13 13.6667 10.3133 13.6667 7C13.6667 3.68667 10.9801 1 7.66675 1ZM7.00008 4.33333V7.66667L9.83342 9.34667L10.3467 8.49333L8.00008 7.1V4.33333H7.00008Z" fill="#4F4F4F"/>
</svg>
