<svg width="12" height="13" viewBox="0 0 12 13" fill="none" xmlns="http://www.w3.org/2000/svg">
<g clip-path="url(#clip0)">
<path d="M11.3183 4.45306C11.1438 4.42694 10.9645 4.40157 10.784 4.37749C10.693 4.07497 10.5715 3.78168 10.4216 3.50312C10.5321 3.35863 10.641 3.21388 10.7462 3.07169C10.9798 2.75576 10.946 2.30771 10.6677 2.0295L9.97025 1.33218C9.69192 1.05379 9.24386 1.02004 8.92802 1.25374C8.78534 1.35931 8.64064 1.46815 8.49659 1.57822C8.21808 1.42831 7.92483 1.30681 7.62222 1.21579C7.59809 1.03526 7.57281 0.856015 7.5467 0.681529C7.48859 0.293029 7.14792 0 6.7543 0H5.768C5.37439 0 5.03371 0.293029 4.97561 0.681485C4.94953 0.855882 4.92421 1.03518 4.90008 1.21575C4.59748 1.30676 4.30418 1.42826 4.02571 1.57818C3.88175 1.46806 3.73696 1.35918 3.59433 1.25369C3.2784 1.02 2.83034 1.05375 2.55209 1.33209L1.85477 2.02937C1.57639 2.30766 1.54255 2.75576 1.77624 3.07174C1.88137 3.21388 1.99025 3.35868 2.10068 3.50312C1.95086 3.78163 1.82931 4.07488 1.7383 4.37749C1.55781 4.40162 1.37852 4.42694 1.20403 4.45306C0.81549 4.51121 0.522461 4.85184 0.522461 5.2455V6.23175C0.522461 6.62537 0.815402 6.96604 1.20395 7.02419C1.37848 7.05031 1.55773 7.07568 1.73825 7.09977C1.82927 7.40232 1.95077 7.69557 2.10064 7.97413C1.9903 8.11849 1.88142 8.26319 1.77606 8.40556C1.5425 8.7214 1.57625 9.16955 1.85459 9.44771L2.55201 10.1451C2.8303 10.4235 3.27836 10.4572 3.59424 10.2236C3.73692 10.1181 3.88162 10.0091 4.02562 9.89912C4.30423 10.049 4.59752 10.1705 4.90003 10.2615C4.92408 10.442 4.94945 10.6213 4.97556 10.7958C5.03371 11.1843 5.37439 11.4773 5.768 11.4773H6.7543C7.14792 11.4773 7.48859 11.1844 7.5467 10.7958C7.57277 10.6212 7.59809 10.442 7.62222 10.2615C7.92478 10.1705 8.21803 10.0489 8.49659 9.89903C8.64055 10.0091 8.78534 10.118 8.92798 10.2236C9.24381 10.4573 9.69196 10.4235 9.97021 10.1452L10.6676 9.44784C10.946 9.16955 10.9798 8.72144 10.7461 8.40552C10.6408 8.26319 10.5319 8.1184 10.4216 7.97418C10.5714 7.69566 10.693 7.40246 10.784 7.09981C10.9645 7.07568 11.1438 7.05035 11.3183 7.02424C11.7068 6.96609 11.9998 6.62546 11.9998 6.23179V5.24554C11.9998 4.85188 11.7068 4.51121 11.3183 4.45306ZM11.0393 6.0945C10.8808 6.11749 10.7191 6.13981 10.5569 6.16094C10.236 6.20281 9.97334 6.43054 9.88784 6.74104C9.80592 7.03835 9.68702 7.32525 9.5345 7.59375C9.3752 7.87403 9.39977 8.22088 9.59711 8.47752C9.69659 8.60687 9.79528 8.73706 9.89133 8.86571L9.38821 9.36887C9.25917 9.27256 9.12898 9.17391 8.99989 9.07465C8.74339 8.87722 8.39645 8.85282 8.11612 9.01196C7.84758 9.16452 7.56068 9.28341 7.26355 9.36534C6.95287 9.45093 6.72514 9.7136 6.6834 10.0344C6.66227 10.1966 6.63999 10.3583 6.61696 10.5168H5.90534C5.88236 10.3583 5.86008 10.1966 5.8389 10.0346C5.79703 9.71365 5.56934 9.45097 5.25875 9.36538C4.96153 9.2835 4.67473 9.1646 4.40609 9.01204C4.12577 8.85278 3.77883 8.87727 3.52237 9.07465C3.39324 9.17396 3.26314 9.27256 3.134 9.36887L2.63089 8.86571C2.72693 8.73693 2.82558 8.60682 2.9252 8.47734C3.1224 8.22079 3.14698 7.87394 2.98771 7.59366C2.8352 7.32516 2.7163 7.03822 2.63437 6.741C2.54883 6.43041 2.2862 6.20272 1.96533 6.16085C1.80311 6.13968 1.64137 6.11744 1.4829 6.09437V5.38284C1.64137 5.35985 1.80306 5.33753 1.96528 5.3164C2.28615 5.27453 2.54883 5.04679 2.63433 4.73629C2.71626 4.43903 2.83511 4.15213 2.98767 3.88359C3.14698 3.60331 3.1224 3.25641 2.92515 2.99987C2.82549 2.87034 2.72684 2.74019 2.63089 2.61163L3.134 2.10847C3.26305 2.20478 3.3932 2.30343 3.52224 2.40265C3.77865 2.60007 4.12555 2.62469 4.40609 2.46538C4.67455 2.31287 4.96149 2.19397 5.25867 2.112C5.56934 2.02641 5.79708 1.76374 5.83881 1.44296C5.85999 1.28074 5.88231 1.11904 5.9053 0.960574H6.61692C6.6399 1.119 6.66218 1.28069 6.68331 1.44282C6.72518 1.76374 6.95292 2.02641 7.26346 2.11196C7.56073 2.19388 7.84767 2.31282 8.11617 2.46534C8.39653 2.62465 8.74343 2.5999 8.99984 2.40269C9.12898 2.30343 9.25908 2.20478 9.38821 2.10847L9.89133 2.61163C9.79537 2.74024 9.69672 2.87043 9.59706 3C9.39981 3.2565 9.37528 3.60335 9.53446 3.88363C9.68697 4.15222 9.80587 4.43916 9.8878 4.73634C9.97334 5.04693 10.236 5.27462 10.5568 5.31649C10.7191 5.33766 10.8808 5.35994 11.0393 5.38297V6.0945Z" fill="#4F4F4F"/>
<path d="M6.26146 3.69165C5.13271 3.69165 4.21436 4.60996 4.21436 5.73875C4.21436 6.86759 5.13266 7.7859 6.26146 7.7859C7.39025 7.7859 8.30856 6.86759 8.30856 5.73875C8.30856 4.60996 7.39025 3.69165 6.26146 3.69165ZM6.26146 6.87589C5.6345 6.87589 5.12433 6.36575 5.12433 5.73871C5.12433 5.11166 5.63446 4.60158 6.26146 4.60158C6.88846 4.60158 7.39855 5.11171 7.39859 5.73871C7.39859 6.36575 6.88846 6.87589 6.26146 6.87589Z" fill="#4F4F4F"/>
</g>
<defs>
<clipPath id="clip0">
<rect width="12" height="12.4853" fill="white"/>
</clipPath>
</defs>
</svg>
