<svg width="12" height="12" viewBox="0 0 12 12" fill="none" xmlns="http://www.w3.org/2000/svg">
<g clip-path="url(#clip0)">
<path d="M6.00016 5.99998C7.28683 5.99998 8.3335 4.95331 8.3335 3.66665C8.3335 2.37998 7.28683 1.33331 6.00016 1.33331C4.7135 1.33331 3.66683 2.37998 3.66683 3.66665C3.66683 4.95331 4.7135 5.99998 6.00016 5.99998ZM6.00016 2.66665C6.5535 2.66665 7.00016 3.11331 7.00016 3.66665C7.00016 4.21998 6.5535 4.66665 6.00016 4.66665C5.44683 4.66665 5.00016 4.21998 5.00016 3.66665C5.00016 3.11331 5.44683 2.66665 6.00016 2.66665ZM6.0335 9.33331H3.18016C3.84016 8.99998 4.98016 8.66665 6.00016 8.66665C6.0735 8.66665 6.1535 8.67331 6.22683 8.67331C6.4535 8.18665 6.84683 7.78665 7.32016 7.46665C6.8335 7.37998 6.3735 7.33331 6.00016 7.33331C4.44016 7.33331 1.3335 8.11331 1.3335 9.66665V10.6666H6.00016V9.66665C6.00016 9.55331 6.0135 9.43998 6.0335 9.33331Z" fill="#4F4F4F"/>
<path d="M8.81572 9.33331H5.95604C5.97608 9.43998 5.98944 9.55331 5.98944 9.66665V10.6666H10.6665V9.66665C10.6665 8.11331 7.55292 7.33331 5.98944 7.33331C5.61528 7.33331 5.15425 7.37998 4.6665 7.46665C5.14089 7.78665 5.5351 8.18665 5.76227 8.67331C5.83577 8.67331 5.91595 8.66665 5.98944 8.66665C7.01172 8.66665 8.15425 8.99998 8.81572 9.33331Z" fill="#4F4F4F"/>
</g>
<defs>
<clipPath id="clip0">
<rect width="12" height="12" fill="white"/>
</clipPath>
</defs>
</svg>
