<svg width="25" height="25" viewBox="0 0 25 25" fill="none" xmlns="http://www.w3.org/2000/svg">
<path fill-rule="evenodd" clip-rule="evenodd" d="M12.5002 2.08325C6.75016 2.08325 2.0835 6.74992 2.0835 12.4999C2.0835 18.2499 6.75016 22.9166 12.5002 22.9166C18.2502 22.9166 22.9168 18.2499 22.9168 12.4999C22.9168 6.74992 18.2502 2.08325 12.5002 2.08325ZM7.36475 19.0416C7.81266 18.1041 10.5418 17.1874 12.5002 17.1874C14.4585 17.1874 17.1981 18.1041 17.6356 19.0416C16.2189 20.1666 14.4377 20.8333 12.5002 20.8333C10.5627 20.8333 8.78141 20.1666 7.36475 19.0416ZM12.5002 15.1041C14.021 15.1041 17.6356 15.7187 19.1252 17.5312C20.1877 16.1353 20.8335 14.3958 20.8335 12.4999C20.8335 7.90617 17.0939 4.16659 12.5002 4.16659C7.90641 4.16659 4.16683 7.90617 4.16683 12.4999C4.16683 14.3958 4.81266 16.1353 5.87516 17.5312C7.36475 15.7187 10.9793 15.1041 12.5002 15.1041ZM12.5002 6.24992C10.4793 6.24992 8.85433 7.87492 8.85433 9.89575C8.85433 11.9166 10.4793 13.5416 12.5002 13.5416C14.521 13.5416 16.146 11.9166 16.146 9.89575C16.146 7.87492 14.521 6.24992 12.5002 6.24992ZM10.9377 9.89575C10.9377 10.7603 11.6356 11.4583 12.5002 11.4583C13.3647 11.4583 14.0627 10.7603 14.0627 9.89575C14.0627 9.03117 13.3647 8.33325 12.5002 8.33325C11.6356 8.33325 10.9377 9.03117 10.9377 9.89575Z" fill="#BDBDBD"/>
</svg>
