<svg width="32" height="14" viewBox="0 0 32 14" fill="none" xmlns="http://www.w3.org/2000/svg">
<g clip-path="url(#clip0)">
<path d="M12.8131 2.23816L11.1868 11.7818H13.7878L15.4154 2.23816H12.8131Z" fill="#333333"/>
<path d="M9.00571 2.24896L6.45823 8.75746L6.18662 7.77473C5.68422 6.59064 4.25795 4.89009 2.5835 3.81838L4.91289 11.7772L7.66507 11.7726L11.7612 2.24695L9.00571 2.24896Z" fill="#333333"/>
<path d="M5.19931 2.93196C5.04812 2.35062 4.60994 2.17735 4.06606 2.15662H0.033449L0 2.34661C3.13819 3.10791 5.2147 4.94225 6.07635 7.14788L5.19931 2.93196Z" fill="#333333"/>
<path d="M20.6868 4.06778C21.5378 4.0544 22.1546 4.24038 22.6336 4.43304L22.8684 4.54342L23.2203 2.47494C22.7052 2.2816 21.8977 2.07422 20.8902 2.07422C18.32 2.07422 16.5084 3.36869 16.4943 5.22378C16.4776 6.59452 17.7848 7.35983 18.7722 7.81674C19.7857 8.28503 20.1256 8.58273 20.1209 9.00084C20.1129 9.63972 19.3128 9.93273 18.5655 9.93273C17.5239 9.93273 16.9707 9.7889 16.1164 9.433L15.7812 9.28047L15.4153 11.4165C16.0241 11.6834 17.1473 11.9129 18.3133 11.925C21.0474 11.925 22.8242 10.6459 22.843 8.66367C22.8543 7.57926 22.1606 6.75173 20.6574 6.07271C19.7476 5.62985 19.191 5.3355 19.1964 4.88862C19.1964 4.49191 19.6687 4.06778 20.6868 4.06778Z" fill="#333333"/>
<path d="M29.8955 2.2489H27.8859C27.2617 2.2489 26.7974 2.41882 26.5232 3.04097L22.6611 11.7872H25.3926C25.3926 11.7872 25.8381 10.6112 25.9391 10.3536C26.2382 10.3536 28.892 10.3576 29.27 10.3576C29.3476 10.6908 29.5871 11.7872 29.5871 11.7872H32.0001L29.8955 2.2489ZM26.6877 8.40017C26.9018 7.85228 27.724 5.73295 27.724 5.73295C27.7099 5.75904 27.936 5.18104 28.0705 4.8218L28.2458 5.64465C28.2458 5.64465 28.7442 7.92319 28.8485 8.40017H26.6877Z" fill="#333333"/>
</g>
<defs>
<clipPath id="clip0">
<rect width="32" height="14" fill="white"/>
</clipPath>
</defs>
</svg>
